<svg xmlns="http://www.w3.org/2000/svg" xmlns:xlink="http://www.w3.org/1999/xlink" width="389" height="416" viewBox="0 0 389 416"><defs><path id="gp6wa" d="M598.304 1529.514h-31.308c-3.016 11.406-7.176 22.281-12.456 32.428l21.952 23.508c10.137 10.857 10.137 28.459 0 39.315l-18.355 19.656c-10.138 10.856-26.573 10.856-36.71 0l-21.953-23.51c-9.476 5.656-19.631 10.112-30.282 13.342v33.527c0 15.273-11.56 27.653-25.823 27.653h-25.822c-14.262 0-25.823-12.38-25.823-27.653v-33.527a136.02 136.02 0 0 1-31.287-13.995l-22.563 24.163c-10.137 10.856-26.573 10.856-36.71 0l-18.356-19.656c-10.137-10.856-10.137-28.458 0-39.315l22.958-24.585c-5.016-9.829-8.938-20.359-11.846-31.35h-31.307c-14.263 0-25.823-12.383-25.823-27.655v-27.654c0-15.273 11.56-27.652 25.823-27.652h31.307c3.017-11.406 7.176-22.283 12.457-32.43l-23.569-25.24c-10.137-10.855-10.137-28.456 0-39.313l18.356-19.656c10.137-10.857 26.573-10.857 36.71 0l23.568 25.24c9.476-5.657 19.631-10.11 30.282-13.342v-33.526c0-15.274 11.56-27.655 25.823-27.655h25.822c14.263 0 25.823 12.381 25.823 27.655v33.526c10.265 3.115 20.098 7.315 29.276 12.688l22.958-24.586c10.138-10.857 26.573-10.857 36.71 0l18.356 19.656c10.137 10.857 10.137 28.458 0 39.314l-22.564 24.162c5.552 10.461 9.942 21.686 13.068 33.507h31.308c14.263 0 25.823 12.38 25.823 27.652v27.654c0 15.272-11.56 27.654-25.823 27.654zm-245.314-41.48c0 45.817 34.683 82.959 77.468 82.959 42.785 0 77.467-37.142 77.467-82.96 0-45.817-34.682-82.96-77.467-82.96s-77.468 37.143-77.468 82.96zm77.468-41.48c21.393 0 38.734 18.57 38.734 41.48 0 22.907-17.341 41.48-38.734 41.48-21.392 0-38.734-18.573-38.734-41.48 0-22.91 17.342-41.48 38.734-41.48z"/></defs><g><g transform="translate(-236 -1280)"><use fill="#fff" xlink:href="#gp6wa"/></g></g></svg>